<?xml version="1.0" encoding="UTF-8"?>
<svg id="Layer_1" xmlns="http://www.w3.org/2000/svg" version="1.1" viewBox="0 0 500 500">
  <!-- Generator: Adobe Illustrator 29.6.0, SVG Export Plug-In . SVG Version: 2.1.1 Build 207)  -->
  <defs>
    <style>
      .st0 {
        fill: #003b49;
      }

      .st1 {
        fill: #fff;
      }
    </style>
  </defs>
  <circle class="st0" cx="250" cy="250" r="223.8"/>
  <path class="st1" d="M289.9,387.4l-133.8-69.7h-58.7v-123.4h58.7l133.8-69.7v262.8ZM171.4,297.9l93.8,48.8v-181.4l-93.8,48.8v83.7ZM122,293.1h24.7v-74h-24.7v74ZM314.5,354.8v-24.7c40.8,0,74-33.2,74-74s-33.2-74-74-74v-24.7c54.4,0,98.7,44.3,98.7,98.7s-44.3,98.7-98.7,98.7ZM314.5,305.4v-24.7c13.6,0,24.7-11.1,24.7-24.7s-11.1-24.7-24.7-24.7v-24.7c27.2,0,49.4,22.1,49.4,49.4s-22.1,49.4-49.4,49.4Z"/>
</svg>