<?xml version="1.0" encoding="UTF-8"?>
<svg id="Layer_1" xmlns="http://www.w3.org/2000/svg" version="1.1" viewBox="0 0 500 500">
  <!-- Generator: Adobe Illustrator 29.6.0, SVG Export Plug-In . SVG Version: 2.1.1 Build 207)  -->
  <defs>
    <style>
      .st0 {
        fill: #003b49;
      }

      .st1 {
        fill: #fff;
      }
    </style>
  </defs>
  <circle class="st0" cx="250" cy="250" r="223.8"/>
  <path class="st1" d="M321.1,135.2c-30.9,0-57.4,20.9-72.4,53-15-32-41.5-53-72.4-53-48,0-85.6,50.4-85.6,114.8s37.6,114.8,85.6,114.8,57.4-20.9,72.4-53c15,32,41.5,53,72.4,53,48,0,85.6-50.4,85.6-114.8s-37.6-114.8-85.6-114.8ZM176.3,344c-19.5,0-40.5-15-51.5-45,3.7,1,7.8,1.7,12,1.7,18.2,0,32.9-14.2,32.9-27.1s-14.8-27.1-32.9-27.1-14.1,1.8-19.6,4.7c0-1.6-.2-3.1-.2-4.7,0-55.4,31.2-90.3,59.2-90.3s59.2,38.6,59.2,94-31.2,94-59.2,94ZM321.1,344c-19.5,0-40.5-15-51.5-45,3.7,1,7.8,1.7,12,1.7,18.2,0,32.9-14.2,32.9-27.1s-14.8-27.1-32.9-27.1-14.1,1.8-19.6,4.7c0-1.6-.2-3.1-.2-4.7,0-55.4,31.2-90.3,59.2-90.3s59.2,38.6,59.2,94-31.2,94-59.2,94Z"/>
</svg>