<?xml version="1.0" encoding="UTF-8"?>
<svg id="Layer_1" xmlns="http://www.w3.org/2000/svg" version="1.1" viewBox="0 0 500 500">
  <!-- Generator: Adobe Illustrator 29.6.0, SVG Export Plug-In . SVG Version: 2.1.1 Build 207)  -->
  <defs>
    <style>
      .st0 {
        fill: #003b49;
      }

      .st1 {
        fill: #fff;
      }
    </style>
  </defs>
  <circle class="st0" cx="250" cy="250" r="223.8"/>
  <path class="st1" d="M246.3,379.4c-19.5,0-38.6-8.3-51.9-23.8l-21.6-25.2h-100v-150.4h68.2l5.2-8.6c9.7-16.2,27.6-26.3,46.5-26.3h114.6c18.9,0,36.8,10.1,46.5,26.3l5.2,8.6h68.2v150.4h-62.4l-89.4,42.4c-9.3,4.4-19.3,6.6-29.1,6.6ZM97.5,305.8h86.6l29,33.8c12.8,14.9,34,19.4,51.7,11l77.4-36.7-64.8-75.6-24.1,24.1c-7.6,7.6-18.2,12-29.1,12s-.3,0-.4,0c-10.9-.1-21-4.4-28.5-12.2-7.4-7.6-11.3-17.7-11.3-28.3,0-10.6,4.3-20.6,11.8-28.1l36-36h-39.3c-10.3,0-20,5.5-25.4,14.4l-12.3,20.6h-57.5v101.1ZM367.7,305.8h34.8v-101.1h-57.5l-12.3-20.6c-5.3-8.9-15-14.4-25.4-14.4h-40.4l-53.5,53.5c-6,6-6.1,15.8-.2,21.8,2.8,2.9,6.7,4.6,10.9,4.6,4.4,0,8.7-1.7,11.8-4.8l42.9-42.9,89,103.8Z"/>
</svg>