<?xml version="1.0" encoding="UTF-8"?>
<svg id="Layer_1" xmlns="http://www.w3.org/2000/svg" version="1.1" viewBox="0 0 500 500">
  <!-- Generator: Adobe Illustrator 29.6.0, SVG Export Plug-In . SVG Version: 2.1.1 Build 207)  -->
  <defs>
    <style>
      .st0 {
        fill: #003b49;
      }

      .st1 {
        fill: #fff;
      }
    </style>
  </defs>
  <circle class="st0" cx="250" cy="250" r="223.8"/>
  <g id="g1332">
    <g id="g1334">
      <g id="g1336">
        <g id="g1342">
          <g id="path1344">
            <path class="st1" d="M323.2,367.7h-193.6c-21.2,0-38.5-17.3-38.5-38.5v-130.8c0-21.2,17.3-38.5,38.5-38.5h193.6c21.2,0,38.5,17.3,38.5,38.5v130.8c0,21.2-17.3,38.5-38.5,38.5ZM129.7,184.6c-7.6,0-13.8,6.2-13.8,13.8v130.8c0,7.6,6.2,13.8,13.8,13.8h193.6c7.6,0,13.8-6.2,13.8-13.8v-130.8c0-7.6-6.2-13.8-13.8-13.8h-193.6Z"/>
          </g>
        </g>
        <g id="g1346">
          <g id="path1348">
            <path class="st1" d="M424.5,347.7l-87.5-36.4v-94.9l87.5-36.4v167.8ZM361.7,294.8l38.1,15.9v-93.8l-38.1,15.9v62Z"/>
          </g>
        </g>
        <g id="g1350">
          <g id="path1352">
            <polygon class="st1" points="286.1 177.8 263.3 132.3 140.1 132.3 140.1 107.6 278.6 107.6 308.1 166.8 286.1 177.8"/>
          </g>
        </g>
        <g id="g1354">
          <g id="path1356">
            <path class="st1" d="M297.1,250c-14,0-25.4-11.4-25.4-25.4s11.4-25.4,25.4-25.4,25.4,11.4,25.4,25.4-11.4,25.4-25.4,25.4ZM297.1,223.8c-.4,0-.7.3-.7.7s.3.7.7.7.7-.3.7-.7-.3-.7-.7-.7Z"/>
          </g>
        </g>
      </g>
    </g>
  </g>
</svg>