<?xml version="1.0" encoding="UTF-8"?>
<svg id="Layer_1" xmlns="http://www.w3.org/2000/svg" version="1.1" viewBox="0 0 500 500">
  <!-- Generator: Adobe Illustrator 29.6.0, SVG Export Plug-In . SVG Version: 2.1.1 Build 207)  -->
  <defs>
    <style>
      .st0 {
        fill: #003b49;
      }

      .st1 {
        fill: #fff;
      }
    </style>
  </defs>
  <circle class="st0" cx="250" cy="250" r="223.8"/>
  <path class="st1" d="M235.2,437.4l-157-157L237,121.5h157v157l-158.8,158.8ZM113,280.4l122.1,122.1,134.2-134.2v-122.1h-122.1l-134.2,134.2ZM197.7,335.3l-17.4-17.4,18.9-18.9c-2.4-4.9-3.6-10.3-3.6-16,0-9.9,3.9-19.2,10.8-26.2l17.4,17.5c-2.3,2.3-3.6,5.4-3.6,8.7s1.3,6.4,3.6,8.7c2.3,2.3,5.4,3.6,8.7,3.6s6.4-1.3,8.7-3.6c2.3-2.3,3.6-5.4,3.6-8.7s-1.3-6.4-3.6-8.7l8.7-8.7-8.7,8.7c-14.4-14.4-14.4-37.9,0-52.3,11.4-11.4,28.4-13.8,42.1-7.2l18.9-18.9,17.4,17.4-18.9,18.9c6.6,13.8,4.1,30.8-7.2,42.1l-17.4-17.4c4.8-4.8,4.8-12.6,0-17.5-4.8-4.8-12.6-4.8-17.5,0-4.8,4.8-4.8,12.6,0,17.4,7,7,10.8,16.3,10.8,26.2s-3.9,19.2-10.8,26.2c-7,7-16.3,10.8-26.2,10.8s-11-1.2-16-3.6l-18.9,18.9ZM334.3,198.7l-17.4-17.4,17.4-17.4,17.4,17.4-17.4,17.4Z"/>
</svg>